<svg xmlns="http://www.w3.org/2000/svg" viewBox="0 0 512 512">
  <rect width="512" height="512" rx="96" fill="#4F6EF7"/>
  <g fill="none" stroke="#fff" stroke-width="28" stroke-linecap="round" stroke-linejoin="round">
    <path d="M256 140 c-60 0-100 40-100 80 c0 40 40 60 100 60 c60 0 100-20 100-60 c0-40-40-80-100-80z"/>
    <path d="M180 280 v60 M332 280 v60"/>
    <path d="M160 120 a110 110 0 0 0-60 98"/>
    <path d="M352 120 a110 110 0 0 1 60 98"/>
    <line x1="100" y1="218" x2="70" y2="248"/>
    <line x1="412" y1="218" x2="442" y2="248"/>
  </g>
  <text x="256" y="420" text-anchor="middle" fill="#fff" font-size="72" font-weight="700" font-family="sans-serif">,™</text>
</svg>
